<svg xmlns="http://www.w3.org/2000/svg" width="64" height="64" viewBox="0 0 64 64">
    <g fill="none" fill-rule="evenodd">
        <path d="M0 0h64v64H0z"/>
        <path stroke="#CCC" stroke-width="2" d="M32 52c9.389 0 17-7.611 17-17s-7.611-17-17-17-17 7.611-17 17 7.611 17 17 17z"/>
        <path fill="#CCC" d="M33.688 37.87h-3.336l-.698-13.358h4.73l-.697 13.357zM29.6 42.544c0-.766.205-1.344.615-1.736.41-.392 1.007-.588 1.79-.588.757 0 1.343.2 1.758.601.414.401.622.976.622 1.723 0 .72-.21 1.287-.63 1.702-.418.415-1.002.622-1.75.622-.765 0-1.357-.203-1.776-.608-.42-.406-.63-.978-.63-1.716z"/>
    </g>
</svg>
