<svg xmlns="http://www.w3.org/2000/svg" width="32" height="32" viewBox="0 0 32 32">
    <g fill="none" fill-rule="evenodd" stroke="#666">
        <path fill="#666" fill-rule="nonzero" stroke-width=".2" d="M16.765 5.47c0 .308-.123.616-.37.863a1.193 1.193 0 0 1-1.728 0 1.219 1.219 0 0 1-.37-.864c0-.309.123-.617.37-.864a1.193 1.193 0 0 1 1.728 0c.247.247.37.555.37.864zm1.235 0c0-.618-.247-1.235-.74-1.73a2.46 2.46 0 0 0-3.52 0c-.493.495-.74 1.112-.74 1.73 0 .616.247 1.234.74 1.728a2.46 2.46 0 0 0 3.52 0c.493-.494.74-1.112.74-1.729zM25.765 19.47c0 .308-.123.616-.37.863a1.193 1.193 0 0 1-1.728 0 1.219 1.219 0 0 1-.37-.864c0-.309.123-.617.37-.864a1.193 1.193 0 0 1 1.728 0c.247.247.37.555.37.864zm1.235 0c0-.618-.247-1.235-.74-1.73a2.46 2.46 0 0 0-3.52 0c-.493.495-.74 1.112-.74 1.73 0 .616.247 1.234.74 1.728a2.46 2.46 0 0 0 3.52 0c.493-.494.74-1.112.74-1.729zM8.765 19.47c0 .308-.123.616-.37.863a1.193 1.193 0 0 1-1.728 0 1.219 1.219 0 0 1-.37-.864c0-.309.123-.617.37-.864a1.193 1.193 0 0 1 1.728 0c.247.247.37.555.37.864zm1.235 0c0-.618-.247-1.235-.74-1.73a2.46 2.46 0 0 0-3.52 0c-.493.495-.74 1.112-.74 1.73 0 .616.247 1.234.74 1.728a2.46 2.46 0 0 0 3.52 0c.493-.494.74-1.112.74-1.729zM16.765 25.47c0 .308-.123.616-.37.863a1.193 1.193 0 0 1-1.728 0 1.219 1.219 0 0 1-.37-.864c0-.309.123-.617.37-.864a1.193 1.193 0 0 1 1.728 0c.247.247.37.555.37.864zm1.235 0c0-.618-.247-1.235-.74-1.73a2.46 2.46 0 0 0-3.52 0c-.493.495-.74 1.112-.74 1.73 0 .616.247 1.234.74 1.728a2.46 2.46 0 0 0 3.52 0c.493-.494.74-1.112.74-1.729z"/>
        <path stroke-width="1.5" d="M15.537 7.909v8.277m0-.174v7.037M24.25 17.239l-16.5-.25v-3.06c0-.645.554-1.179 1.25-1.179h14c.696 0 1.25.534 1.25 1.178v3.31z"/>
    </g>
</svg>
