<svg xmlns="http://www.w3.org/2000/svg" width="32" height="32" viewBox="0 0 32 32">
    <g fill="none" fill-rule="evenodd">
        <path fill="#797979" fill-rule="nonzero" d="M26.748 10.066l-10.5-6a.499.499 0 0 0-.496 0l-10.5 6A.5.5 0 0 0 5 10.5v11a.5.5 0 0 0 .252.434l10.5 6a.498.498 0 0 0 .496 0l10.5-6A.5.5 0 0 0 27 21.5v-11a.5.5 0 0 0-.252-.434zm-.94 10.901l-9.765 5.492-9.814-5.527-.023-9.831 9.79-5.744 9.934 5.683-.122 9.927z"/>
        <g fill="#666" fill-rule="nonzero" stroke="#666" stroke-width=".52">
            <path d="M15.84 17.214h-2.727l2.12-7.134h3.616z"/>
            <path d="M14 22.28l2.729-7.6h2.727z"/>
        </g>
    </g>
</svg>
