<svg xmlns="http://www.w3.org/2000/svg" width="64" height="64" viewBox="0 0 64 64">
    <g fill="none" fill-rule="evenodd">
        <path d="M0 0h64v64H0z"/>
        <path fill="#CCC" fill-rule="nonzero" d="M31.942 34.413h-3.426l3.426-9.085h4.542z"/>
        <path fill="#CCC" fill-rule="nonzero" d="M29.631 41.266l3.427-10.28h3.426z"/>
        <path fill="#CCC" fill-rule="nonzero" d="M32.5 19.75c3.427 0 6.614 1.355 9.005 3.745 2.39 2.39 3.745 5.578 3.745 9.005 0 3.427-1.355 6.614-3.745 9.005-2.39 2.39-5.578 3.745-9.005 3.745-3.427 0-6.614-1.355-9.005-3.745-2.39-2.39-3.745-5.578-3.745-9.005 0-3.427 1.355-6.614 3.745-9.005 2.39-2.39 5.578-3.745 9.005-3.745zm0-1.594c-3.666 0-7.331 1.435-10.12 4.224-5.578 5.578-5.578 14.662 0 20.32 2.789 2.79 6.454 4.223 10.12 4.223 3.666 0 7.331-1.434 10.12-4.223 5.578-5.578 5.578-14.663 0-20.32-2.789-2.79-6.454-4.224-10.12-4.224zM32.5 8.594c.877 0 1.594.717 1.594 1.594 0 .876-.717 1.593-1.594 1.593a1.598 1.598 0 0 1-1.594-1.594c0-.876.717-1.593 1.594-1.593zM32.5 7a3.197 3.197 0 0 0-3.188 3.188 3.197 3.197 0 0 0 3.188 3.187 3.197 3.197 0 0 0 3.188-3.188A3.197 3.197 0 0 0 32.5 7zM32.5 53.219c.877 0 1.594.717 1.594 1.593 0 .877-.717 1.594-1.594 1.594a1.598 1.598 0 0 1-1.594-1.593c0-.877.717-1.594 1.594-1.594zm0-1.594a3.197 3.197 0 0 0-3.188 3.188A3.197 3.197 0 0 0 32.5 58a3.197 3.197 0 0 0 3.188-3.188 3.197 3.197 0 0 0-3.188-3.187z"/>
        <path stroke="#CCC" stroke-width="1.6" d="M32.5 19.75v-7.375M32.5 52.625V45.25"/>
        <path fill="#CCC" fill-rule="nonzero" d="M50.801 17.81c.394.063.763.282 1.028.647.264.365.36.783.297 1.177a1.573 1.573 0 0 1-.647 1.027c-.364.265-.783.36-1.176.298a1.573 1.573 0 0 1-1.027-.647 1.573 1.573 0 0 1-.298-1.177c.062-.393.282-.762.647-1.027.364-.265.783-.36 1.176-.298zm.25-1.574c-.787-.125-1.624.066-2.354.596a3.175 3.175 0 0 0-.71 4.486c.53.73 1.267 1.169 2.054 1.293.787.125 1.624-.065 2.353-.595a3.175 3.175 0 0 0 .71-4.486c-.529-.73-1.266-1.17-2.053-1.294zM14.697 44.041c.394.063.762.283 1.027.647.53.73.38 1.674-.349 2.204-.364.265-.783.36-1.176.298a1.573 1.573 0 0 1-1.028-.647c-.53-.73-.38-1.674.35-2.204.364-.265.783-.36 1.176-.298zm.25-1.574c-.788-.124-1.624.066-2.354.596a3.175 3.175 0 0 0-.71 4.486c.53.73 1.267 1.169 2.054 1.294.787.124 1.624-.066 2.353-.596a3.175 3.175 0 0 0 .71-4.486c-.53-.73-1.266-1.169-2.053-1.294z"/>
        <path stroke="#CCC" stroke-width="1.6" d="M42.802 25.015l5.597-4.066M16.75 43.972l5.448-3.987"/>
        <g>
            <path fill="#CCC" fill-rule="nonzero" d="M14.199 17.81c.393-.062.812.033 1.176.298.73.53.88 1.474.35 2.204a1.573 1.573 0 0 1-1.028.647 1.573 1.573 0 0 1-1.176-.298c-.73-.53-.88-1.475-.35-2.204a1.573 1.573 0 0 1 1.028-.647zm-.25-1.574c-.787.125-1.524.564-2.054 1.294a3.175 3.175 0 0 0 .71 4.486c.73.53 1.567.72 2.354.595.787-.124 1.524-.564 2.054-1.293a3.175 3.175 0 0 0-.71-4.486c-.73-.53-1.567-.72-2.354-.596zM50.303 44.041c.393-.062.812.033 1.176.298.365.265.585.634.647 1.027.063.394-.033.812-.297 1.177a1.573 1.573 0 0 1-1.028.647 1.573 1.573 0 0 1-1.176-.298 1.573 1.573 0 0 1-.647-1.027 1.573 1.573 0 0 1 .298-1.177 1.573 1.573 0 0 1 1.027-.647zm-.25-1.574c-.787.125-1.524.565-2.054 1.294a3.175 3.175 0 0 0 .71 4.486c.73.53 1.567.72 2.354.596.787-.125 1.524-.565 2.054-1.294a3.175 3.175 0 0 0-.71-4.486c-.73-.53-1.566-.72-2.354-.596z"/>
            <path stroke="#CCC" stroke-width="1.6" d="M22.198 25.015l-5.43-3.955M48.222 43.967l-5.42-3.982"/>
        </g>
    </g>
</svg>
